<?xml version="1.0" encoding="utf-8"?>
<!-- Generator: Adobe Illustrator 22.1.0, SVG Export Plug-In . SVG Version: 6.00 Build 0)  -->
<svg version="1.1" id="Layer_1" xmlns="http://www.w3.org/2000/svg" xmlns:xlink="http://www.w3.org/1999/xlink" x="0px" y="0px"
	 viewBox="0 0 508 508" style="enable-background:new 0 0 508 508;" xml:space="preserve">
<style type="text/css">
	.st0{fill:#FFFFFF;stroke:#000000;stroke-width:3;stroke-miterlimit:10;}
	.st1{fill:#324A5E;}
	.st2{fill:#FFFFFF;}
</style>
<g>
	<path class="st0" d="M178.9,236.2c-6.7-3.6-13.1-11.1-17.2-21.1c-6.6-16.1-3.9-32.3,5.6-36c0.9-0.3,1.3-0.6,2.1-0.5
		c1.6,19.3,4.9,34.1,5.6,37C175.9,222.3,177.2,229.4,178.9,236.2z"/>
	<path class="st0" d="M348.3,223.3c-5.6,9.2-13.2,15.6-20.4,18c2.8-6.4,5.2-13.2,7.2-20c0,0,0,0,0-0.4c1.6-6,3.2-12,4.8-18h-0.4
		c1.6-6,3.2-12,4.4-18c1.6,0,3.2,0.8,4.8,1.6C357.5,192.1,357.1,208.5,348.3,223.3z"/>
	<path class="st0" d="M339,210.8c-4.3,32.2-17.7,52.6-22,58.7c-2.8,4-7.1,9.6-13,15.5c-11.5,11.5-28.2,28.2-48,27
		c-9.3-0.6-17.3-6-33.5-17c-7.1-4.8-15.7-10.6-23.5-19c-18.4-19.7-23.1-43.1-24.8-52c-5.3-28.3-3.4-77.9,29.3-101.4
		c15.8-11.4,34.9-13.9,40.5-14.6c15.2-2,27.5,0,39.5,2c18.8,3.1,28.2,4.7,35.5,9.5C348.6,139.1,340.9,196.6,339,210.8z"/>
</g>
<path class="st1" d="M545.5,170.5"/>
<path class="st1" d="M644.8,211.4"/>
<path class="st1" d="M624.1,203.4"/>
<path class="st1" d="M569,176"/>
<path class="st0" d="M325.5,336.9c-1.3-10.7-5.4-19.9-14.3-24.9c0,0,0,0.5,0,1.3c0-0.3,0-0.3,0-0.3c0-5.2-1.2-10.4-2.4-15.6
	c-15.6,19.6-34.4,32.8-54.8,32.8c-20.4,0-39.2-13.2-54.8-32.8c-1.2,5.2-2.4,10.4-2.4,15.6c0,0,0,0,0,0.3c0-0.9,0-1.3,0-1.3
	c-9.4,5.3-13.4,15.4-14.5,26.9c0-0.7,0-1.4,0.1-2.1C140.8,347.6,90,369.6,56.8,414c46.4,57.2,117.6,94,197.2,94s150.8-36.8,197.2-94
	C418.5,369.7,367.4,347.7,325.5,336.9z"/>
<path class="st0" d="M333.5,212.5c1.4-0.2,4-0.9,6.5-3c1.5-1.2,6.1-25.7,6.6-34.6c0.6-9.5,0.9-18.6,1-27.2
	c0.6-6.6-0.4-13.1-0.1-20.2c0.4-9.1,0.4-10.5-0.3-14.5c-1.2-7.3-3-12.6-5.5-16.5c-5.6-8.8-11.5-14.7-15.3-17.4
	c-0.6-0.4-7.4-5.4-14.6-8.2c-0.6-0.2-1.9-0.7-3.4-1.3c-3.3-1.2-6.4-2.2-9.4-3c-3.6-0.9-7.5-1.8-11.9-2.4c-3.7-0.5-7.1-0.8-10.3-1
	C270,63,260,63,247.9,64c-13.6,1.1-22.2,1.8-33.1,5.5c-9.8,3.3-19.8,6.9-26.7,16.7c-3.5,5-5,10-5.7,13.4c-0.3,0.2-0.5,0.5-0.8,0.7
	c-8.5,7.9-11.6,17.5-13,21.9c-6.1,19.5-2.4,44.9-2.3,45.9c1.5,9.7,4.1,19,4.9,36.3c0.1,1.9,5.1,7.2,7,8.2c0.9,0.5,1.2-27.7,3.5-37.9
	c3-13,7.6-23.2,13.4-31c27.3-37.7,78.1-23.6,78.1-23.6c5.4-0.7,28.4-3.1,46.8,11.9C340.9,148.9,347.4,182.3,333.5,212.5z"/>
<g>
	<path class="st2" d="M187,102c4.6,1.5,11.2,4.3,17.5,10c2.5,2.2,4.4,4.4,6,6.5"/>
	<path d="M187,102c2.4,0.4,4.8,1.1,7.1,2c2.3,1,4.5,2.2,6.5,3.6c2,1.4,3.9,3.1,5.6,4.9c1.7,1.8,3.2,3.8,4.3,6
		c-1.8-1.7-3.6-3.3-5.4-4.9c-1.8-1.5-3.7-3-5.7-4.4c-1.9-1.4-4-2.6-6-3.8C191.3,104.2,189.2,103.1,187,102z"/>
</g>
<g>
	<path class="st2" d="M318.9,111c-4-2.1-8.6-4.2-13.8-5.9c-15.1-5.1-28.7-5.4-38.2-4.7"/>
	<path d="M318.9,111c-4.2-1.7-8.3-3.3-12.6-4.6c-4.3-1.3-8.5-2.5-12.9-3.3c-4.3-0.9-8.7-1.5-13.2-1.9c-4.4-0.4-8.9-0.6-13.4-0.7
		c4.4-0.7,9-1,13.5-0.9c4.5,0.1,9,0.7,13.5,1.5c4.4,0.9,8.8,2.2,13,3.8C311,106.6,315.1,108.6,318.9,111z"/>
</g>
<g>
	<path class="st2" d="M211.5,88.5c9.5-4.6,23.2-9.9,40.5-12c29.2-3.6,52.6,3.7,64.5,8.5"/>
	<path d="M211.5,88.5c4-2.2,8.1-4,12.3-5.7c4.2-1.6,8.5-3.1,12.9-4.2c8.8-2.3,17.8-3.6,26.9-3.9c4.5-0.1,9.1,0,13.6,0.3
		c4.5,0.4,9,1,13.5,1.9c8.9,1.7,17.6,4.5,25.8,8.2c-8.5-3-17.3-5.2-26.1-6.6c-4.4-0.7-8.9-1.2-13.3-1.5c-4.5-0.3-8.9-0.4-13.4-0.2
		c-8.9,0.2-17.8,1.5-26.6,3.4C228.3,82.1,219.8,84.9,211.5,88.5z"/>
</g>
<g>
	<path class="st2" d="M263,93.3c-4.5-0.3-9.6-0.3-15,0.2c-15.8,1.5-28.4,6.7-36.8,11.3"/>
	<path d="M263,93.3c-4.5,0.1-9,0.4-13.4,0.9c-4.4,0.5-8.8,1.2-13.1,2.2c-4.3,1-8.6,2.2-12.8,3.6c-4.2,1.4-8.4,3.1-12.5,4.8
		c3.8-2.5,7.8-4.6,12-6.3c4.2-1.8,8.5-3.1,12.9-4.1c4.4-1,8.9-1.6,13.5-1.8C254.1,92.4,258.6,92.6,263,93.3z"/>
</g>
</svg>
